# xmcd CD database file
#
# Track frame offsets:
#	150
#	11772
#	21077
#	32800
#	43702
#	55747
#	64592
#	75865
#	88527
#	99795
#	110970
#	121700
#	133335
#	144555
#	156312
#	167117
#	178907
#	192040
#	203425
#	214242
#
# Disc length: 3013 seconds
#
# Revision: 4
# Processed by: cddbd v1.5PL3 Copyright (c) Steve Scherf et al.
# Submitted via: CDex 1.51
#
DISCID=0d0bc314
DTITLE=Patsy Cline - Walking After Midnight
DYEAR=1992
DGENRE=Country
TTITLE0=Walking After Midnight
TTITLE1=I Love You Honey
TTITLE2=I've Loved and Lost Again
TTITLE3=Stop Look and Listen
TTITLE4=Today Tomorrow and Forever
TTITLE5=Ain't No Wheels On This Ship
TTITLE6=Don't Ever Leave Me Again
TTITLE7=Fingerprints
TTITLE8=Hungry For Love
TTITLE9=I Cant Forget
TTITLE10=I Don't Wanna
TTITLE11=In Care of the Blues
TTITLE12=Stop the World and Let Me Off
TTITLE13=Let the Teardrops Fall
TTITLE14=I Can See an Angel
TTITLE15=Never No More
TTITLE16=If I Could See the World
TTITLE17=Just Out of Reach
TTITLE18=Cry Not for Me
TTITLE19=If I Could Only Stay Asleep
EXTD=YEAR: 1992
EXTT0=
EXTT1=
EXTT2=
EXTT3=
EXTT4=
EXTT5=
EXTT6=
EXTT7=
EXTT8=
EXTT9=
EXTT10=
EXTT11=
EXTT12=
EXTT13=
EXTT14=
EXTT15=
EXTT16=
EXTT17=
EXTT18=
EXTT19=
PLAYORDER=
